<svg width="800" height="400" viewBox="0 0 800 400" fill="none" xmlns="http://www.w3.org/2000/svg">
  <defs>
    <linearGradient id="grad1" x1="0%" y1="0%" x2="100%" y2="100%">
      <stop offset="0%" style="stop-color:#f15a22;stop-opacity:0.1" />
      <stop offset="100%" style="stop-color:#0b1b3a;stop-opacity:0.05" />
    </linearGradient>
    <linearGradient id="grad2" x1="0%" y1="0%" x2="100%" y2="0%">
      <stop offset="0%" style="stop-color:#0b1b3a;stop-opacity:0.8" />
      <stop offset="100%" style="stop-color:#f15a22;stop-opacity:0.8" />
    </linearGradient>
  </defs>
  <rect width="800" height="400" fill="url(#grad1)" />
  <g opacity="0.6">
    <rect x="100" y="120" width="60" height="160" rx="4" fill="#0b1b3a" />
    <rect x="180" y="100" width="60" height="180" rx="4" fill="#f15a22" />
    <rect x="260" y="140" width="60" height="140" rx="4" fill="#0b1b3a" />
    <rect x="340" y="80" width="60" height="200" rx="4" fill="#f15a22" />
    <rect x="420" y="110" width="60" height="170" rx="4" fill="#0b1b3a" />
    <rect x="500" y="130" width="60" height="150" rx="4" fill="#f15a22" />
    <rect x="580" y="90" width="60" height="190" rx="4" fill="#0b1b3a" />
    <rect x="660" y="120" width="60" height="160" rx="4" fill="#f15a22" />
  </g>
  <path d="M80 320 L720 320" stroke="url(#grad2)" stroke-width="2" stroke-dasharray="8,4" />
  <circle cx="100" cy="320" r="6" fill="#0b1b3a" />
  <circle cx="200" cy="320" r="6" fill="#f15a22" />
  <circle cx="300" cy="320" r="6" fill="#0b1b3a" />
  <circle cx="400" cy="320" r="6" fill="#f15a22" />
  <circle cx="500" cy="320" r="6" fill="#0b1b3a" />
  <circle cx="600" cy="320" r="6" fill="#f15a22" />
  <circle cx="700" cy="320" r="6" fill="#0b1b3a" />
</svg>
