<svg width="700" height="400" viewBox="0 0 700 400" fill="none" xmlns="http://www.w3.org/2000/svg">
  <defs>
    <linearGradient id="res1" x1="0%" y1="0%" x2="0%" y2="100%">
      <stop offset="0%" style="stop-color:#0b1b3a;stop-opacity:0.9" />
      <stop offset="100%" style="stop-color:#0b1b3a;stop-opacity:0.6" />
    </linearGradient>
    <linearGradient id="res2" x1="0%" y1="0%" x2="0%" y2="100%">
      <stop offset="0%" style="stop-color:#f15a22;stop-opacity:0.9" />
      <stop offset="100%" style="stop-color:#f15a22;stop-opacity:0.6" />
    </linearGradient>
    <linearGradient id="res3" x1="0%" y1="0%" x2="0%" y2="100%">
      <stop offset="0%" style="stop-color:#0b1b3a;stop-opacity:0.9" />
      <stop offset="100%" style="stop-color:#0b1b3a;stop-opacity:0.6" />
    </linearGradient>
  </defs>
  <!-- Resource Categories -->
  <g transform="translate(50,100)">
    <rect x="0" y="0" width="180" height="120" rx="8" fill="url(#res1)" />
    <text x="90" y="30" text-anchor="middle" fill="white" font-family="sans-serif" font-size="14" font-weight="600">Manufacturing</text>
    <text x="20" y="55" fill="white" font-family="sans-serif" font-size="12">Onboarding Guide</text>
    <text x="20" y="75" fill="white" font-family="sans-serif" font-size="12">Capacity Template</text>
    <text x="20" y="95" fill="white" font-family="sans-serif" font-size="12">Compliance Checklist</text>
  </g>
  
  <g transform="translate(260,100)">
    <rect x="0" y="0" width="180" height="120" rx="8" fill="url(#res2)" />
    <text x="90" y="30" text-anchor="middle" fill="white" font-family="sans-serif" font-size="14" font-weight="600">OEM & Tier</text>
    <text x="20" y="55" fill="white" font-family="sans-serif" font-size="12">Requirement Guide</text>
    <text x="20" y="75" fill="white" font-family="sans-serif" font-size="12">Evaluation Framework</text>
  </g>
  
  <g transform="translate(470,100)">
    <rect x="0" y="0" width="180" height="120" rx="8" fill="url(#res3)" />
    <text x="90" y="30" text-anchor="middle" fill="white" font-family="sans-serif" font-size="14" font-weight="600">Cross Sector</text>
    <text x="20" y="55" fill="white" font-family="sans-serif" font-size="12">Compliance Overview</text>
    <text x="20" y="75" fill="white" font-family="sans-serif" font-size="12">Traceability Guide</text>
  </g>
  
  <!-- Additional Categories -->
  <g transform="translate(155,250)">
    <rect x="0" y="0" width="120" height="80" rx="6" fill="#f15a22" />
    <text x="60" y="25" text-anchor="middle" fill="white" font-family="sans-serif" font-size="12" font-weight="600">Students</text>
    <text x="15" y="45" fill="white" font-family="sans-serif" font-size="10">Training Log</text>
    <text x="15" y="60" fill="white" font-family="sans-serif" font-size="10">Exposure Guide</text>
  </g>
  
  <g transform="translate(295,250)">
    <rect x="0" y="0" width="120" height="80" rx="6" fill="#0b1b3a" />
    <text x="60" y="25" text-anchor="middle" fill="white" font-family="sans-serif" font-size="12" font-weight="600">Financial</text>
    <text x="15" y="45" fill="white" font-family="sans-serif" font-size="10">Review Checklist</text>
    <text x="15" y="60" fill="white" font-family="sans-serif" font-size="10">Acquisition Indicators</text>
  </g>
  
  <g transform="translate(435,250)">
    <rect x="0" y="0" width="120" height="80" rx="6" fill="#f15a22" />
    <text x="60" y="25" text-anchor="middle" fill="white" font-family="sans-serif" font-size="12" font-weight="600">Associations</text>
    <text x="15" y="45" fill="white" font-family="sans-serif" font-size="10">Capability Mapping</text>
    <text x="15" y="60" fill="white" font-family="sans-serif" font-size="10">Compliance Framework</text>
  </g>
</svg>
